<svg width="64" height="64" viewBox="0 0 64 64" fill="none" xmlns="http://www.w3.org/2000/svg">
  <defs>
    <linearGradient id="appGradient" x1="0%" y1="0%" x2="100%" y2="100%">
      <stop offset="0%" stop-color="#667eea" />
      <stop offset="100%" stop-color="#764ba2" />
    </linearGradient>
    <linearGradient id="cardGradient1" x1="0%" y1="0%" x2="100%" y2="100%">
      <stop offset="0%" stop-color="#ffffff" />
      <stop offset="100%" stop-color="#f0f0f0" />
    </linearGradient>
    <linearGradient id="cardGradient2" x1="0%" y1="0%" x2="100%" y2="100%">
      <stop offset="0%" stop-color="#e8f4f8" />
      <stop offset="100%" stop-color="#d0e8f0" />
    </linearGradient>
  </defs>
  
  <rect width="64" height="64" rx="12" fill="url(#appGradient)" />
  
  <rect x="8" y="12" width="14" height="40" rx="2" fill="rgba(255,255,255,0.2)" />
  
  <rect x="10" y="20" width="10" height="8" rx="1" fill="url(#cardGradient1)" />
  <circle cx="12" cy="22" r="1.2" fill="#667eea" />
  <line x1="14" y1="22" x2="18" y2="22" stroke="#333" stroke-width="0.6" />
  <line x1="12" y1="24" x2="18" y2="24" stroke="#666" stroke-width="0.5" />
  
  <rect x="10" y="30" width="10" height="8" rx="1" fill="url(#cardGradient1)" />
  <circle cx="12" cy="32" r="1.2" fill="#764ba2" />
  <line x1="14" y1="32" x2="18" y2="32" stroke="#333" stroke-width="0.6" />
  
  <rect x="25" y="12" width="14" height="40" rx="2" fill="rgba(255,255,255,0.2)" />
  
  <rect x="27" y="20" width="10" height="8" rx="1" fill="url(#cardGradient2)" />
  <circle cx="29" cy="22" r="1.2" fill="#667eea" />
  <line x1="31" y1="22" x2="35" y2="22" stroke="#333" stroke-width="0.6" />
  <line x1="29" y1="24" x2="35" y2="24" stroke="#666" stroke-width="0.5" />
  
  <rect x="42" y="12" width="14" height="40" rx="2" fill="rgba(255,255,255,0.2)" />
  
  <rect x="44" y="20" width="10" height="8" rx="1" fill="url(#cardGradient1)" />
  <circle cx="46" cy="22" r="1.2" fill="#4caf50" />
  <path d="M45.3 22 L46.3 23 L48.3 21" stroke="#4caf50" stroke-width="1" fill="none" stroke-linecap="round" stroke-linejoin="round" />
  <line x1="50" y1="22" x2="52" y2="22" stroke="#333" stroke-width="0.6" />
  <line x1="46" y1="24" x2="52" y2="24" stroke="#666" stroke-width="0.5" />
  
  <circle cx="16" cy="54" r="1.5" fill="white" opacity="0.6" />
  <circle cx="32" cy="54" r="1.5" fill="white" opacity="0.6" />
  <circle cx="48" cy="54" r="1.5" fill="white" opacity="0.6" />
</svg>

